# xmcd
#
# Track frame offsets:
#	150
#	12920
#	18304
#	37918
#	54231
#	77993
#	91348
#	100013
#	103892
#	109063
#	118479
#	129893
#	140044
#	144385
#	153100
#	162199
#	183328
#	191310
#	214330
#	226438
#	235958
#	244999
#	251983
#	262516
#	274876
#	294026
#	301395
#	308792
#	316759
#	324128
#	330037
#	338848
#	343299
#
# Disc length: 4682 seconds
#
# Revision: 0
# Processed by: cddbd v1.5.2PL0 Copyright (c) Steve Scherf et al.
# Submitted via: dBpowerAMP V4.0
#
DISCID=c2124821
DTITLE=Various Artist - the soul of d'angelo
DYEAR=2006
DGENRE=Soul
TTITLE0=d'angelo - d'angeloduction
TTITLE1=brandy - baby
TTITLE2=d'angelo - me and those dreamin' eyes of mine
TTITLE3=d'angelo - brown sugar
TTITLE4=d'angelo - lady
TTITLE5=BB king feat. d'angelo - cruisin'
TTITLE6=a tribe called quest - crew
TTITLE7=vertical hold feat d'angelo - pray
TTITLE8=angie stone for devox feat. d'angelo - everyday
TTITLE9=d'angelo and erikah badu - your precious love
TTITLE10=the boys chair of harlem feat. d'angelo - overjoyed
TTITLE11=d'angelo - I found my smile again
TTITLE12=black men united, boyz II men , d'angelo ,   .... - U will know
TTITLE13=d'angelo - girl you need a change of mind
TTITLE14=d'angelo - everybody loves the sunshine
TTITLE15=the roots feat. d'angelo - the notic+ the hypnotic and the spark
TTITLE16=d'angelo - ain't nobody home
TTITLE17=d'angelo - sweet sticky thing and i'm so glad you're mine and heaven must be like this
TTITLE18=Gza feat. d'angelo - cold world  remix
TTITLE19=method man feat. d'angelo - break ups 2 make ups
TTITLE20=slum village feat. d'angelo - tell me
TTITLE21=common feat. d'angelo - geto heaven part II
TTITLE22=lauryn hill feat. d'angelo - nothing esle matters
TTITLE23=d'angelo feat. method man and redman - left and right
TTITLE24=d'angelo - devil's pie
TTITLE25=d'angelo - africa
TTITLE26=d'angelo - spanish joint
TTITLE27=d'angelo - she's always in my hair
TTITLE28=raphael saadiq feat. d'angelo - be here
TTITLE29=the roots feat. d'angelo - break you off
TTITLE30=d'angelo , femi kuti and macy gray, the soultronic - water get no enemy
TTITLE31=roy hargrove feat. d'angelo - I'll stay
TTITLE32=d'angelo feat. isaac hayes and chuck D - sing a simple song
EXTD=
EXTT0=
EXTT1=
EXTT2=
EXTT3=
EXTT4=
EXTT5=
EXTT6=
EXTT7=
EXTT8=
EXTT9=
EXTT10=
EXTT11=
EXTT12=
EXTT13=
EXTT14=
EXTT15=
EXTT16=
EXTT17=
EXTT18=
EXTT19=
EXTT20=
EXTT21=
EXTT22=
EXTT23=
EXTT24=
EXTT25=
EXTT26=
EXTT27=
EXTT28=
EXTT29=
EXTT30=
EXTT31=
EXTT32=
PLAYORDER=
